<svg xmlns="http://www.w3.org/2000/svg" viewBox="0 0 32 32" width="32" height="32">
  <rect width="32" height="32" rx="7" fill="#060606"/>
  
  <!-- Incoming wave -->
  <path d="M4 12 Q2 16 4 20" stroke="white" stroke-width="1.2" stroke-linecap="round" fill="none" opacity=".5"/>

  <!-- Ear outer shape — scaled to 32x32 -->
  <path d="M11 4C13.5 3 18 3 20.5 5.5C23 8 23.5 12 23.2 15.5C22.8 19 21.2 21.5 19.5 23C18 24.3 16.2 25 15 25.2C13.9 25.4 12.8 25.3 12.1 24.6C11.3 23.8 11.3 22.4 11.8 21.2C12.3 20 13.1 19.4 13.3 18.4C13.6 17.2 13.1 15.8 12.3 15C11.4 14.1 10.2 13.9 9.7 12.8C9.1 11.6 9.4 9.5 11 8.5Z" stroke="white" stroke-width="1.6" stroke-linecap="round" stroke-linejoin="round" fill="none" opacity=".95"/>

  <!-- Inner ridge -->
  <path d="M12.2 5.5C14 5 17 5.3 19 7.2C20.8 9 21.1 11.8 20.8 14.2C20.4 16.4 19.2 18 18 19C17 19.8 15.8 20.2 15 20.3" stroke="white" stroke-width=".9" stroke-linecap="round" fill="none" opacity=".38"/>

  <!-- Canal dot -->
  <circle cx="15.5" cy="15" r="1.6" fill="white" opacity=".9"/>

  <!-- Earlobe -->
  <path d="M12.1 24.6C11.4 26 11.6 27.2 12.5 27C13.5 26.8 14 25.6 13.4 24.8" stroke="white" stroke-width="1.2" stroke-linecap="round" fill="none" opacity=".6"/>
</svg>
